<?xml version="1.0" standalone="no"?>
<!DOCTYPE svg PUBLIC "-//W3C//DTD SVG 20010904//EN"
 "http://www.w3.org/TR/2001/REC-SVG-20010904/DTD/svg10.dtd">
<svg version="1.0" xmlns="http://www.w3.org/2000/svg"
 width="512.000000pt" height="512.000000pt" viewBox="0 0 512.000000 512.000000"
 preserveAspectRatio="xMidYMid meet">
<metadata>
Created by potrace 1.11, written by Peter Selinger 2001-2013
</metadata>
<g transform="translate(0.000000,512.000000) scale(0.100000,-0.100000)"
fill="#000000" stroke="none">
<path d="M2363 4990 c-40 -24 -56 -54 -56 -105 0 -31 149 -698 168 -754 4 -9
0 -11 -12 -6 -10 3 -43 13 -73 21 -176 47 -341 33 -540 -46 -135 -53 -218 -79
-275 -85 -50 -5 -77 0 -240 49 -44 13 -82 22 -84 20 -16 -15 166 -206 243
-254 30 -19 55 -37 55 -40 0 -3 -25 -18 -57 -33 -171 -85 -367 -225 -508 -363
-301 -293 -480 -621 -559 -1024 -23 -117 -29 -413 -10 -545 127 -895 890
-1586 1880 -1702 107 -12 489 -9 585 5 279 42 510 115 750 238 566 289 968
817 1065 1400 27 164 28 431 1 579 -80 452 -297 827 -657 1135 -110 95 -268
203 -386 264 -18 9 -33 20 -33 24 0 4 19 16 43 26 95 44 241 166 330 277 l38
47 -42 -14 c-164 -57 -413 -56 -536 1 -17 8 -34 15 -37 15 -3 0 -47 20 -98 44
-258 122 -385 149 -544 116 -31 -7 -58 -10 -61 -7 -4 4 -23 81 -78 307 -2 8
-16 62 -30 120 -15 58 -29 119 -32 135 -3 17 -12 52 -21 80 -29 86 -115 120
-189 75z"/>
</g>
</svg>
