<svg viewBox="0 0 512 512" xmlns="http://www.w3.org/2000/svg"><path d="M437.09 74.98C388.78 26.63 324.55 0 256.234 0 194.656 0 136.07 21.809 89.707 61.7L40.105 12.96 30.168 181.47l171.3-12.668-48.609-45.028c29.422-23.101 65.57-35.668 103.375-35.668 92.493 0 167.743 75.317 167.743 167.895s-75.25 167.898-167.743 167.898c-42.464 0-82.976-15.918-114.078-44.816-30.933-28.75-49.797-67.687-53.11-109.644l-1.093-13.817H0l.95 15.895C9.015 406.367 121.147 512 256.233 512c68.317 0 132.547-26.629 180.856-74.98C485.395 388.668 512 324.379 512 256s-26.605-132.668-74.91-181.02zm0 0"/></svg>
