<svg viewBox="0 0 34 34" fill="none" xmlns="http://www.w3.org/2000/svg"><path clip-rule="evenodd" d="M29.5 17c0 .567-.05 1.1-.117 1.633l3.517 2.75c.317.25.4.7.2 1.067l-3.333 5.767c-.2.366-.634.516-1.017.366l-4.15-1.666c-.867.65-1.8 1.216-2.817 1.633l-.633 4.417c-.05.4-.4.7-.817.7h-6.666a.813.813 0 01-.817-.7l-.633-4.417A12.177 12.177 0 019.4 26.917l-4.15 1.666c-.367.134-.817 0-1.017-.366L.9 22.45a.84.84 0 01.2-1.067l3.517-2.75A13.218 13.218 0 014.5 17c0-.55.05-1.1.117-1.633L1.1 12.617a.822.822 0 01-.2-1.067l3.333-5.767a.813.813 0 011.017-.366L9.4 7.083c.867-.65 1.8-1.216 2.817-1.633l.633-4.417c.05-.4.4-.7.817-.7h6.666c.417 0 .767.3.817.7l.633 4.417c1.017.417 1.95.967 2.817 1.633l4.15-1.666c.367-.134.817 0 1.017.366L33.1 11.55a.84.84 0 01-.2 1.067l-3.517 2.75c.067.533.117 1.066.117 1.633zm-18.333 0A5.84 5.84 0 0017 22.833 5.84 5.84 0 0022.833 17 5.84 5.84 0 0017 11.167 5.84 5.84 0 0011.167 17z"/></svg>
